<svg width="16" height="20" viewBox="0 0 16 20" fill="none" xmlns="http://www.w3.org/2000/svg">
<path fill-rule="evenodd" clip-rule="evenodd" d="M9.46829 0.888576C10.5381 0.775615 11.6313 1.05049 12.451 1.52375C13.2707 1.99702 14.0553 2.80627 14.4924 3.78925C14.9416 4.79948 15.0378 6.04332 14.3481 7.23785L9.84809 15.0321C9.60141 15.4593 9.12147 16.0111 8.42131 16.3264C7.66386 16.6675 6.72509 16.6931 5.75001 16.1302C4.77494 15.5672 4.3277 14.7414 4.24441 13.9149C4.16743 13.1508 4.40526 12.4593 4.65194 12.0321L8.65194 5.10388C8.92808 4.62559 9.53967 4.46171 10.018 4.73785C10.4963 5.014 10.6601 5.62559 10.384 6.10388L6.38399 13.0321C6.29733 13.1822 6.20837 13.4567 6.23433 13.7144C6.254 13.9095 6.33945 14.1611 6.75001 14.3981C7.16058 14.6351 7.42116 14.5834 7.6 14.5028C7.83612 14.3965 8.02938 14.1822 8.11604 14.0321L12.616 6.23785C12.9264 5.70034 12.9065 5.14514 12.6649 4.60185C12.4112 4.0313 11.9303 3.53254 11.451 3.2558C10.9717 2.97907 10.2992 2.81195 9.6783 2.87752C9.087 2.93995 8.59625 3.20034 8.28591 3.73785L3.28591 12.3981C2.63159 13.5314 3.00017 15.6972 5.25001 16.9962C7.49985 18.2951 9.55979 17.5314 10.2141 16.3981L13.7141 10.3359C13.9903 9.85764 14.6018 9.69376 15.0801 9.9699C15.5584 10.246 15.7223 10.8576 15.4462 11.3359L11.9462 17.3981C10.6005 19.7289 7.19633 20.4293 4.25001 18.7282C1.3037 17.0272 0.208186 13.7289 1.55386 11.3981L6.55386 2.73785C7.24353 1.54332 8.3688 1.00467 9.46829 0.888576Z" fill="#7A7A7A"/>
</svg>
